PathFileType	4	(X/Y/Z)	30_2_70_p1_0-1027_filt_butterworth.trc
DataRate	CameraRate	NumFrames	NumMarkers	Units	OrigDataRate	OrigDataStartFrame	OrigNumFrames
51.0	51.0	5	27	m	51.0	385	1027
Frame#	Time	RHip			RKnee			RAnkle			RBigToe			RSmallToe			RHeel			LHip			LKnee			LAnkle			LBigToe			LSmallToe			LHeel			Neck			Head			Nose			RShoulder			RElbow			RWrist			RThumb			RIndex			RPinky			LShoulder			LElbow			LWrist			LThumb			LIndex			LPinky			
		X1	Y1	Z1	X2	Y2	Z2	X3	Y3	Z3	X4	Y4	Z4	X5	Y5	Z5	X6	Y6	Z6	X7	Y7	Z7	X8	Y8	Z8	X9	Y9	Z9	X10	Y10	Z10	X11	Y11	Z11	X12	Y12	Z12	X13	Y13	Z13	X14	Y14	Z14	X15	Y15	Z15	X16	Y16	Z16	X17	Y17	Z17	X18	Y18	Z18	X19	Y19	Z19	X20	Y20	Z20	X21	Y21	Z21	X22	Y22	Z22	X23	Y23	Z23	X24	Y24	Z24	X25	Y25	Z25	X26	Y26	Z26	X27	Y27	Z27	
385	7.549019607843137	0.2785089588408435	0.5559042599009608	0.8497863059747359	0.2813459759105656	0.5307717793299094	1.3080803580132114	0.2728196604532915	0.5191946324497119	1.8017551647922347	0.23760805047008535	0.3373713944749619	1.8006656669093655	0.3008622503796167	0.37181163654845856	1.8099986477002752	0.26397454328149095	0.6020700879067993	1.9072424675200603	0.04638977905743537	0.5500303730354937	0.8534317532332816	0.05824295659199802	0.5394596859986938	1.3321268105596964	0.07476957677290046	0.5325098884849823	1.8076580601594077	0.09631567066952454	0.3293154869715568	1.7804396673497347	0.04007713709469003	0.38361208385583745	1.8076422321579397	0.07445489770130641	0.6026748555657201	1.87629324008555	0.14699146030147936	0.5477153435294575	0.24612893011373352	0.1541562993622171	0.43412523893378285	-0.010736674728092685	0.13933048656403418	0.38215776830906156	0.1453862384423915	0.343408908282098	0.5483264497090542	0.34872456416933917	0.4432452995132121	0.6343315437806608	0.5933576932835074	0.47786403675217737	0.5222362586559351	0.8156147054420734	0.43194871502348126	0.4146988966661228	0.8972554685446208	0.4443439109711584	0.41964109153381	0.9013232941418126	0.4721891938815286	0.4696634736945734	0.916621161990637	-0.029096793835713387	0.5986660525698774	0.3269220217398884	-0.152903038230913	0.5501101217752432	0.5019136710484551	-0.14369725338155323	0.33085028000455075	0.5102323229984173	-0.09990893638804452	0.2189712879978463	0.4775848072917112	-0.09417494052282174	0.18675252048742094	0.47700181128205577	-0.11289144843391821	0.20580265369995107	0.5285630145488089
386	7.568627450980392	0.27846221059080073	0.5554068536997422	0.8498696542652266	0.28024709012733284	0.5302344987760516	1.3124745811531202	0.2724466258946382	0.5190170176079069	1.800803975041842	0.23744912116262382	0.3387795481521269	1.8036452977407236	0.30098841234506374	0.3728656144513851	1.8146177056567234	0.2612025100891374	0.6024328760616182	1.9072235514119713	0.0458138101042834	0.5500223290151923	0.8586859561188572	0.058187321540268656	0.5397976223332089	1.335445086515203	0.07516801325980962	0.5328423582263777	1.8081282485239136	0.09498621853648442	0.3334128478533992	1.7833054802510648	0.03819170075491801	0.3928551067538271	1.8120618836363631	0.07722626960103358	0.59768651426882	1.8709689229323783	0.149699900000388	0.5430603578567419	0.24582519831833602	0.15577701119870152	0.4386832084667949	-0.009914743254938208	0.1410677710791757	0.3833828811329697	0.14467935011073174	0.3437040821738062	0.5478535567714425	0.35232264954291803	0.4424214895134906	0.6330152264432327	0.600379172230809	0.4766809769021475	0.5242339362810926	0.8204326378735575	0.42736777195683395	0.40940742543515274	0.8982731891306287	0.4446962557295293	0.41946410901534414	0.9046472445568939	0.4689496747705087	0.45983630124982555	0.9201924025154995	-0.027531998252913102	0.5995650566952124	0.32719952296067123	-0.1495282297241983	0.5572910950975077	0.5029073473540235	-0.14361035511211637	0.33221053331712236	0.5159700008461156	-0.10277024459411777	0.22173056824269083	0.4907602278717377	-0.10000063793947908	0.19343622738627742	0.4894129785203639	-0.11458478816762986	0.2118842442946804	0.5321767586819776
387	7.588235294117647	0.27844461563428896	0.554811925702131	0.8503855731647616	0.27988899382420623	0.5292564896849083	1.3186982885315088	0.2729093011934769	0.5183878206668514	1.7994465551116083	0.23788147644700336	0.34576456614889284	1.8090113774530456	0.30108916340830383	0.3742319700901285	1.8188296971295828	0.2596275768218611	0.6033774070205541	1.9055523125356901	0.04514420440386634	0.5500000507706628	0.8646728071545284	0.05814209907392784	0.540257222898284	1.338619534554937	0.07517600918787386	0.5328534016743534	1.8077178624778212	0.09446765865762506	0.3349651407199212	1.7844685038625545	0.03780867342766005	0.4004506197775036	1.8157789158420052	0.08138836126364828	0.5867136051494598	1.8611872608757558	0.1511603547732928	0.5395140439246316	0.24618072268323132	0.15677628567519292	0.44236153905919817	-0.008794742175842021	0.14209383578130433	0.3862243017051114	0.14407471534558172	0.3439317588739321	0.5472938327297264	0.3562093500213346	0.4413951713776884	0.6298616278828555	0.6067570679033556	0.4752074902072738	0.5255779945873562	0.8241879827802885	0.4198238976295301	0.40111208674227816	0.8977798320631339	0.4406241191295409	0.41635843213689183	0.9073605561979633	0.4621572672800066	0.4453633721279555	0.9220889382261732	-0.026400972599714228	0.6002161596927451	0.3275857232061151	-0.14929485284135374	0.5609063957432325	0.5072684813645455	-0.14288858193273019	0.3353039973755485	0.5270287271509465	-0.10407115858007379	0.22093622078567857	0.5046012975983436	-0.10446440220588221	0.19428942928147414	0.5029652394461729	-0.11543343885996536	0.21898556445174727	0.5427539116415668
388	7.607843137254902	0.27843854071837804	0.5542937980448475	0.8515232334474787	0.2798938336482959	0.528472992845626	1.3243112640635166	0.27301003336076896	0.51826717749514	1.798859746058465	0.23958037143712746	0.35280981060517447	1.8134613285834953	0.3017283611681405	0.37768686564062987	1.8209673248803449	0.2593684025064759	0.6051147093717775	1.9020634980630082	0.04449942808808373	0.5500018711105008	0.8674659408706117	0.058123234722243816	0.5402823613031251	1.3406785207272436	0.07487310165790725	0.5323456712469372	1.8058484111548907	0.09500247113341623	0.3356875583095248	1.7846001917195022	0.03810549278601861	0.40405783768372183	1.8181202450788554	0.08409500047404873	0.5744205834396877	1.8522533204051732	0.15149330162595634	0.5382587360450664	0.24688453648445824	0.1574498633267759	0.44464678835564964	-0.007740405171889587	0.1432894213220614	0.3902362785225053	0.14432718485041474	0.3441907929094247	0.5467515102385897	0.3598005866300949	0.43973474879349567	0.6266512948136718	0.6136073580385211	0.4730191040390355	0.5241427563720262	0.8275251757315777	0.41094525718023517	0.38842674932749927	0.8960981239511205	0.4314489816290976	0.40761635680027153	0.9094833707763657	0.4529178359560398	0.43297438739616556	0.9237304861210536	-0.02606398017785289	0.6005162272489262	0.3290041186410906	-0.152602448847213	0.5605946063293643	0.5144741455827064	-0.14229704007743027	0.3401875764999337	0.5419573241227919	-0.10457065218005498	0.21958877581589994	0.5163590512568341	-0.1065722505302158	0.19413278864997036	0.5159679358586502	-0.11479410593413983	0.22436939987265814	0.561057862546154
389	7.627450980392157	0.2784435399065517	0.554039154508101	0.8526531331550189	0.2799775544174065	0.5285044879279484	1.3276762418005037	0.27210098332576205	0.5209113995764624	1.8001119729179038	0.24269574554000833	0.3568052145486999	1.8149828473657892	0.3030359920678359	0.3801192080966374	1.8182882512191045	0.25949442251877736	0.6098509743361344	1.899149357705604	0.044271826303072595	0.5498728887208608	0.8651549645328427	0.05854202614509175	0.5382443054291471	1.3407470359101157	0.07451106062420358	0.5310704539399043	1.8031810074522907	0.09689036302812193	0.33611118776723636	1.782962394339559	0.0397040970272164	0.40044850296818935	1.8164328007830917	0.08428248980031924	0.567101679826334	1.8483502680975636	0.15145898671565064	0.538292667759815	0.24755807085752016	0.1576898735713268	0.44510520333986076	-0.006718429685895614	0.14426270604115846	0.3930740322973044	0.14570832585368254	0.3444699140227032	0.546352452914268	0.3624068730711495	0.43772413166390645	0.6262807413861269	0.6229388745583481	0.4675708262181466	0.5143389021042143	0.8292904839854293	0.40125357890446645	0.370456600226442	0.8938343327835925	0.41810901606086215	0.39086350907116996	0.9104544650955655	0.44140277804501954	0.42523597304726757	0.9287238076990747	-0.026116520553014857	0.6005336134585358	0.3314750476444726	-0.1559550917332265	0.5603208901110488	0.5220564572729558	-0.14127292112973788	0.34485733778871686	0.5579373954301678	-0.10428743267471341	0.21809618619868004	0.527119126415154	-0.10657480153738504	0.19735178870395215	0.5321505689357567	-0.11262196737316733	0.22794174444475118	0.5835664349506513
